<?xml version="1.0" encoding="utf-8"?>
<!-- Generator: Adobe Illustrator 16.0.0, SVG Export Plug-In . SVG Version: 6.00 Build 0)  -->
<!DOCTYPE svg PUBLIC "-//W3C//DTD SVG 1.1//EN" "http://www.w3.org/Graphics/SVG/1.1/DTD/svg11.dtd">
<svg version="1.1" id="Layer_1" xmlns="http://www.w3.org/2000/svg" xmlns:xlink="http://www.w3.org/1999/xlink" x="0px" y="0px"
	 width="101.765px" height="97.737px" viewBox="0 0 101.765 97.737" enable-background="new 0 0 101.765 97.737"
	 xml:space="preserve">
<g>
	<g>
		<g>
			<path fill-rule="evenodd" clip-rule="evenodd" fill="#FFA939" d="M101.1,51.24c0,0-3.945,5.593-5.316,8.656
				c-1.238,2.766-2.219,5.893-2.293,8.887c-0.242,9.621-1.844,12.225-11.095,15.023c-3.719,1.123-6.438,3.095-8.622,6.33
				c-5.42,8.019-8.672,9.152-17.6,5.909c-3.965-1.442-7.529-1.306-11.436,0.083c-8.576,3.053-12.017,1.969-17.048-5.551
				c-2.415-3.605-5.439-5.751-9.561-6.971C9.725,81.117,7.496,78.09,7.79,69.318c0.15-4.479-1.128-8.087-3.844-11.602
				c-5.256-6.805-5.273-10.935,0.021-17.714c2.848-3.645,3.962-7.435,3.84-12.007c-0.229-8.51,2.006-11.471,10.329-13.886
				c4.136-1.2,7.138-3.373,9.55-6.972c5.031-7.506,8.499-8.623,17.052-5.522c4.073,1.478,7.77,1.411,11.819-0.044
				c8.465-3.045,11.923-1.895,16.98,5.708c2.33,3.505,5.286,5.569,9.241,6.777c8.651,2.642,10.744,5.356,10.541,14.12
				c-0.106,4.588,0.974,8.45,3.96,11.974c1.576,1.863,2.084,2.702,3.339,4.833c0,0.049,0.843,1.335,1.131,3.463
				C101.884,49.434,101.1,51.24,101.1,51.24z M90.754,29.279c0.048-8.809-1.008-10.593-8.957-12.795
				c-5.012-1.392-8.207-4.472-11.004-8.563c-3.904-5.711-6.222-6.579-12.455-4.17c-5.275,2.036-10.177,2.018-15.457,0.031
				c-6.38-2.402-8.795-1.609-12.476,4.066c-2.991,4.611-6.818,7.503-12.12,8.995c-6.67,1.879-8.145,3.943-7.85,10.967
				c0.225,5.352-1.201,9.794-4.531,14.006c-4.545,5.756-4.531,8.323,0.086,14.19c3.328,4.231,4.655,8.716,4.436,14.046
				c-0.286,6.91,1.245,9.005,7.979,10.872c5.17,1.433,8.901,4.228,11.833,8.718c3.91,5.993,6.255,6.71,13.131,4.129
				c4.887-1.834,9.432-1.824,14.318-0.015c7.078,2.623,9.302,1.913,13.399-4.372c2.778-4.256,6.32-6.909,11.189-8.313
				c7.425-2.145,8.7-3.953,8.429-11.743c-0.165-4.749,1.001-8.8,3.937-12.599c5.262-6.807,5.24-8.886-0.054-15.828
				C91.782,37.223,90.221,33.333,90.754,29.279z"/>
		</g>
		<g>
			<path fill-rule="evenodd" clip-rule="evenodd" fill="#FFA939" d="M81.134,49.346c-0.392,17.257-14.217,30.505-31.395,30.082
				c-16.925-0.414-30.158-14.344-29.727-31.283c0.436-17.047,14.193-30.233,31.15-29.863C68.148,18.655,81.515,32.51,81.134,49.346z
				 M78.711,49.394c0.31-15.727-11.96-28.415-27.734-28.678c-15.531-0.257-28.245,11.937-28.555,27.389
				C22.107,63.95,34.303,76.771,49.926,77.011C65.821,77.26,78.398,65.191,78.711,49.394z"/>
		</g>
	</g>
	<g>
		<g>
			<path fill="#FFA939" d="M41.235,50.207c-0.761,0.629-1.437,1.306-2.032,2.033c-0.594,0.727-1.075,1.703-1.438,2.925
				c-0.132,0.396-0.207,0.85-0.223,1.361c-0.017,0.515,0.042,1.042,0.173,1.587c0.132,0.545,0.355,1.099,0.67,1.662
				c0.313,0.561,0.736,1.071,1.264,1.534l11.599-23.94c0.694,0.066,1.57,0.024,2.628-0.124c1.056-0.15,2.065-0.356,3.024-0.621
				l-4.859,10.063l0.844,0.148c2.213,0.298,4.164-0.056,5.85-1.067c1.685-1.007,2.891-2.534,3.617-4.583
				c0.628-1.75,0.537-3.245-0.271-4.485c-0.811-1.24-2.272-2.06-4.388-2.454c-1.289-0.298-2.601-0.372-3.94-0.222
				c-1.338,0.147-2.619,0.478-3.842,0.989c-1.222,0.515-2.354,1.215-3.395,2.108c-1.042,0.889-1.926,1.95-2.651,3.172
				c-1.422,2.479-2.05,4.939-1.884,7.386c-0.926,0.133-1.719-0.009-2.38-0.422c-0.661-0.412-1.124-0.998-1.388-1.76
				c-0.264-0.759-0.322-1.66-0.172-2.701c0.148-1.041,0.57-2.106,1.263-3.196c0.826-1.291,1.875-2.428,3.147-3.419
				c1.272-0.993,2.735-1.787,4.387-2.379c1.652-0.597,3.462-0.983,5.427-1.167c1.967-0.181,4.041-0.125,6.223,0.174
				c1.816,0.263,3.336,0.685,4.56,1.265c1.222,0.576,2.188,1.255,2.899,2.03c0.711,0.779,1.174,1.628,1.389,2.553
				c0.215,0.926,0.223,1.87,0.025,2.826c-0.365,1.752-1.199,3.214-2.504,4.387s-2.9,1.993-4.783,2.454h-2.479l0.248,0.199
				c1.122,0.164,2.057,0.538,2.801,1.113c0.742,0.579,1.297,1.283,1.66,2.109c0.363,0.823,0.545,1.728,0.545,2.7
				c0,0.977-0.198,1.941-0.594,2.899c-0.662,1.585-1.645,2.948-2.951,4.091c-1.305,1.139-2.842,2.023-4.609,2.651
				c-1.768,0.627-3.684,1.001-5.75,1.114c-2.065,0.115-4.156-0.074-6.271-0.57c-2.08-0.428-3.799-1.058-5.154-1.883
				c-1.355-0.824-2.404-1.742-3.148-2.752c-0.744-1.006-1.197-2.048-1.362-3.123c-0.167-1.072-0.1-2.09,0.198-3.047
				c0.329-0.959,0.792-1.76,1.388-2.404c0.594-0.645,1.256-1.121,1.982-1.439c0.727-0.313,1.495-0.452,2.304-0.42
				C39.689,49.596,40.475,49.811,41.235,50.207z M45.003,61.211c-0.596-0.065-1.339-0.031-2.231,0.099
				c-0.892,0.134-1.735,0.282-2.527,0.447c1.057,0.728,2.41,1.19,4.063,1.39c1.454,0.164,2.842,0.123,4.164-0.126
				c1.321-0.247,2.528-0.677,3.618-1.288c1.091-0.613,2.04-1.371,2.851-2.279s1.462-1.926,1.959-3.051
				c0.395-0.926,0.602-1.858,0.619-2.801c0.017-0.941-0.166-1.791-0.545-2.551c-0.381-0.76-0.967-1.406-1.759-1.936
				c-0.794-0.526-1.786-0.84-2.976-0.939c-0.166,0-0.322-0.01-0.472-0.025c-0.148-0.015-0.289-0.024-0.42-0.024L45.003,61.211z"/>
		</g>
	</g>
</g>
</svg>
