<?xml version="1.0" encoding="utf-8"?>
<!-- Generator: Adobe Illustrator 16.0.0, SVG Export Plug-In . SVG Version: 6.00 Build 0)  -->
<!DOCTYPE svg PUBLIC "-//W3C//DTD SVG 1.1//EN" "http://www.w3.org/Graphics/SVG/1.1/DTD/svg11.dtd">
<svg version="1.1" id="Layer_1" xmlns="http://www.w3.org/2000/svg" xmlns:xlink="http://www.w3.org/1999/xlink" x="0px" y="0px"
	 width="142.917px" height="88.881px" viewBox="0 0 142.917 88.881" enable-background="new 0 0 142.917 88.881"
	 xml:space="preserve">
<g>
	<g>
		<path fill="#FFA939" d="M55.503,24.422c-6.736,0-12.216-5.481-12.216-12.216c0-6.738,5.479-12.221,12.216-12.221
			S67.72,5.468,67.72,12.206C67.72,18.941,62.239,24.422,55.503,24.422z M55.503,3.258c-4.932,0-8.945,4.013-8.945,8.948
			c0,4.93,4.014,8.944,8.945,8.944c4.934,0,8.946-4.014,8.946-8.944C64.449,7.271,60.437,3.258,55.503,3.258z"/>
	</g>
	<g>
		<g>
			<path fill="#FFA939" d="M56.892,8.501c0,0.714-0.572,1.284-1.281,1.284c-0.715,0-1.285-0.57-1.285-1.284
				c0-0.709,0.57-1.278,1.285-1.278C56.319,7.223,56.892,7.792,56.892,8.501L56.892,8.501z M56.892,8.501"/>
		</g>
		<g>
			<path fill="#FFA939" d="M56.892,16.208c0,0.708-0.572,1.284-1.281,1.284c-0.715,0-1.285-0.575-1.285-1.284
				c0-0.709,0.57-1.284,1.285-1.284C56.319,14.923,56.892,15.499,56.892,16.208L56.892,16.208z M56.892,16.208"/>
		</g>
		<g>
			<path fill="#FFA939" d="M60.746,12.358c0,0.707-0.577,1.284-1.285,1.284c-0.71,0-1.287-0.578-1.287-1.284
				c0-0.71,0.577-1.284,1.287-1.284C60.169,11.074,60.746,11.648,60.746,12.358L60.746,12.358z M60.746,12.358"/>
		</g>
		<g>
			<path fill="#FFA939" d="M53.041,12.358c0,0.707-0.577,1.284-1.286,1.284c-0.708,0-1.285-0.578-1.285-1.284
				c0-0.71,0.577-1.284,1.285-1.284C52.464,11.074,53.041,11.648,53.041,12.358L53.041,12.358z M53.041,12.358"/>
		</g>
	</g>
	<g>
		<path fill="#FFA939" d="M61.806,7.285c0,0.707-0.578,1.285-1.286,1.285c-0.71,0-1.286-0.579-1.286-1.285
			c0-0.708,0.576-1.286,1.286-1.286C61.228,5.999,61.806,6.577,61.806,7.285L61.806,7.285z M61.806,7.285"/>
	</g>
	<g>
		<path fill="#FFA939" d="M61.806,16.951c0,0.708-0.578,1.287-1.286,1.287c-0.71,0-1.286-0.579-1.286-1.287
			c0-0.709,0.576-1.284,1.286-1.284C61.228,15.667,61.806,16.242,61.806,16.951L61.806,16.951z M61.806,16.951"/>
	</g>
	<g>
		<path fill="#FFA939" d="M51.632,16.951c0,0.708-0.577,1.287-1.285,1.287c-0.709,0-1.286-0.579-1.286-1.287
			c0-0.709,0.577-1.284,1.286-1.284C51.055,15.667,51.632,16.242,51.632,16.951L51.632,16.951z M51.632,16.951"/>
	</g>
	<g>
		<path fill="#FFA939" d="M51.632,7.572c0,0.708-0.577,1.289-1.285,1.289c-0.709,0-1.286-0.58-1.286-1.289
			c0-0.708,0.577-1.285,1.286-1.285C51.055,6.288,51.632,6.865,51.632,7.572L51.632,7.572z M51.632,7.572"/>
	</g>
	<g>
		<path fill="#FFA939" d="M56.772,3.226c0,0.708-0.578,1.288-1.285,1.288c-0.709,0-1.286-0.579-1.286-1.288
			c0-0.709,0.577-1.284,1.286-1.284C56.194,1.942,56.772,2.517,56.772,3.226L56.772,3.226z M56.772,3.226"/>
	</g>
	<g>
		<path fill="#FFA939" d="M56.772,21.937c0,0.704-0.578,1.284-1.285,1.284c-0.709,0-1.286-0.58-1.286-1.284
			c0-0.71,0.577-1.286,1.286-1.286C56.194,20.651,56.772,21.227,56.772,21.937L56.772,21.937z M56.772,21.937"/>
	</g>
</g>
<g>
	<path fill="#FFA939" d="M26.896,34.823l-2.458-1.713c1.616-1.457,5.977-3.682,10.922-1.668c2.521,1.025,3.248,0.68,4.573,0.058
		c0.989-0.466,2.222-1.046,4.128-1.115c2.726-0.1,3.896,0.333,5.146,0.909c0.733,0.34,1.429,0.657,3.19,0.812
		c1.509,0.134,3.61,0.022,4.98-1.273c0.078-0.074,0.139-0.126,0.176-0.155l2.313,1.834c-1.777,1.684-4.575,2.458-7.83,2.172
		c-2.448-0.216-3.57-0.731-4.473-1.147c-0.827-0.381-1.383-0.632-3.352-0.562c-1.09,0.04-1.76,0.354-2.607,0.754
		c-1.975,0.929-3.922,1.572-7.738,0.02C29.927,32.145,27.019,34.712,26.896,34.823z"/>
</g>
<g>
	<path fill="#FFA939" d="M2.563,16.657l-2.458-1.713c1.616-1.457,5.977-3.682,10.922-1.668c2.521,1.025,3.248,0.68,4.573,0.058
		c0.989-0.466,2.222-1.046,4.128-1.115c2.726-0.1,3.896,0.333,5.146,0.909c0.733,0.34,1.429,0.657,3.19,0.812
		c1.509,0.134,3.61,0.022,4.98-1.273c0.078-0.074,0.139-0.126,0.176-0.155l2.313,1.834c-1.777,1.684-4.575,2.458-7.83,2.172
		c-2.448-0.216-3.57-0.731-4.473-1.147c-0.827-0.381-1.383-0.632-3.352-0.562c-1.09,0.04-1.76,0.354-2.607,0.754
		c-1.975,0.929-3.922,1.572-7.738,0.02C5.594,13.978,2.686,16.545,2.563,16.657z"/>
</g>
<g>
	<polygon fill="#FFA939" points="107.913,46.623 100.751,37.914 93.36,46.758 85.913,37.623 78.913,45.873 71.378,36.984 
		73.454,35.248 78.83,42.039 85.694,33.749 93.298,43.195 100.673,34.352 107.829,43.039 112.329,37.852 114.075,39.471 	"/>
</g>
<g>
	<path fill="#FFA939" d="M139.813,88.881H43.944v-3.272h94.129L92.425,6.543L53.244,74.41l-2.834-1.635L90.46,3.403
		c0.44-0.757,1.174-1.209,1.965-1.209c0.792,0,1.527,0.452,1.965,1.208l47.387,82.079c0.437,0.752,0.463,1.616,0.065,2.302
		C141.446,88.471,140.687,88.881,139.813,88.881z"/>
</g>
<g>
	<path fill="#FFA939" d="M59.308,88.881h-46.57c-0.73,0-1.373-0.357-1.719-0.957c-0.344-0.6-0.33-1.336,0.037-1.967l23.28-40.327
		c0.369-0.633,0.999-1.01,1.687-1.01s1.318,0.376,1.684,1.005l23.288,40.335c0.365,0.627,0.378,1.363,0.034,1.963
		C60.683,88.523,60.04,88.881,59.308,88.881z M15.034,85.608h41.979l-20.99-36.354L15.034,85.608z"/>
</g>
<g>
	<polygon fill="#FFA939" points="35.819,67.531 27.885,57.305 29.982,55.931 35.802,63.295 41.928,55.367 44.037,56.998 	"/>
</g>
</svg>
