<?xml version="1.0" encoding="utf-8"?>
<!-- Generator: Adobe Illustrator 16.0.0, SVG Export Plug-In . SVG Version: 6.00 Build 0)  -->
<!DOCTYPE svg PUBLIC "-//W3C//DTD SVG 1.1//EN" "http://www.w3.org/Graphics/SVG/1.1/DTD/svg11.dtd">
<svg version="1.1" id="Layer_1" xmlns="http://www.w3.org/2000/svg" xmlns:xlink="http://www.w3.org/1999/xlink" x="0px" y="0px"
	 width="123.322px" height="94.609px" viewBox="0 0 123.322 94.609" enable-background="new 0 0 123.322 94.609"
	 xml:space="preserve">
<g>
	<g>
		<path fill="#FFA939" d="M111.869,82.92H11.453C5.137,82.92,0,77.783,0,71.469V11.454C0,5.139,5.137,0,11.453,0h100.416
			c6.314,0,11.453,5.139,11.453,11.454v60.015C123.322,77.783,118.184,82.92,111.869,82.92z M11.453,3.273
			c-4.512,0-8.182,3.67-8.182,8.181v60.015c0,4.512,3.67,8.18,8.182,8.18h100.416c4.512,0,8.18-3.668,8.18-8.18V11.454
			c0-4.511-3.668-8.181-8.18-8.181H11.453z"/>
	</g>
	<g>
		<g>
			<path fill="#FFA939" d="M75.824,26.764c0,0.709-0.576,1.277-1.285,1.277c-0.707,0-1.287-0.568-1.287-1.277
				c0-0.715,0.58-1.285,1.287-1.285C75.248,25.479,75.824,26.049,75.824,26.764L75.824,26.764z M75.824,26.764"/>
		</g>
		<g>
			<g>
				<path fill="#FFA939" d="M71.971,15.201c0,0.717-0.574,1.287-1.283,1.287c-0.713,0-1.283-0.57-1.283-1.287
					c0-0.707,0.57-1.275,1.283-1.275C71.396,13.926,71.971,14.494,71.971,15.201L71.971,15.201z M71.971,15.201"/>
			</g>
			<g>
				<path fill="#FFA939" d="M71.971,22.906c0,0.71-0.574,1.287-1.283,1.287c-0.713,0-1.283-0.577-1.283-1.287
					c0-0.706,0.57-1.285,1.283-1.285C71.396,21.621,71.971,22.2,71.971,22.906L71.971,22.906z M71.971,22.906"/>
			</g>
			<g>
				<path fill="#FFA939" d="M75.824,19.058c0,0.708-0.576,1.288-1.285,1.288c-0.707,0-1.287-0.58-1.287-1.288
					s0.58-1.284,1.287-1.284C75.248,17.773,75.824,18.35,75.824,19.058L75.824,19.058z M75.824,19.058"/>
			</g>
			<g>
				<path fill="#FFA939" d="M68.119,19.058c0,0.708-0.578,1.288-1.285,1.288c-0.709,0-1.285-0.58-1.285-1.288
					s0.576-1.284,1.285-1.284C67.541,17.773,68.119,18.35,68.119,19.058L68.119,19.058z M68.119,19.058"/>
			</g>
		</g>
		<g>
			<path fill="#FFA939" d="M68.119,26.764c0,0.709-0.578,1.277-1.285,1.277c-0.709,0-1.285-0.568-1.285-1.277
				c0-0.715,0.576-1.285,1.285-1.285C67.541,25.479,68.119,26.049,68.119,26.764L68.119,26.764z M68.119,26.764"/>
		</g>
		<g>
			<path fill="#FFA939" d="M71.971,30.613c0,0.709-0.574,1.285-1.283,1.285c-0.713,0-1.283-0.576-1.283-1.285
				c0-0.71,0.57-1.285,1.283-1.285C71.396,29.328,71.971,29.903,71.971,30.613L71.971,30.613z M71.971,30.613"/>
		</g>
		<g>
			<path fill="#FFA939" d="M71.971,38.318c0,0.709-0.574,1.287-1.283,1.287c-0.713,0-1.283-0.578-1.283-1.287
				s0.57-1.285,1.283-1.285C71.396,37.033,71.971,37.609,71.971,38.318L71.971,38.318z M71.971,38.318"/>
		</g>
		<g>
			<path fill="#FFA939" d="M75.824,34.461c0,0.718-0.576,1.287-1.285,1.287c-0.707,0-1.287-0.569-1.287-1.287
				c0-0.705,0.58-1.275,1.287-1.275C75.248,33.186,75.824,33.756,75.824,34.461L75.824,34.461z M75.824,34.461"/>
		</g>
		<g>
			<path fill="#FFA939" d="M75.824,42.168c0,0.709-0.576,1.286-1.285,1.286c-0.707,0-1.287-0.577-1.287-1.286
				c0-0.711,0.58-1.286,1.287-1.286C75.248,40.882,75.824,41.457,75.824,42.168L75.824,42.168z M75.824,42.168"/>
		</g>
		<g>
			<path fill="#FFA939" d="M68.119,34.461c0,0.718-0.578,1.287-1.285,1.287c-0.709,0-1.285-0.569-1.285-1.287
				c0-0.705,0.576-1.275,1.285-1.275C67.541,33.186,68.119,33.756,68.119,34.461L68.119,34.461z M68.119,34.461"/>
		</g>
		<g>
			<path fill="#FFA939" d="M68.119,42.168c0,0.709-0.578,1.286-1.285,1.286c-0.709,0-1.285-0.577-1.285-1.286
				c0-0.711,0.576-1.286,1.285-1.286C67.541,40.882,68.119,41.457,68.119,42.168L68.119,42.168z M68.119,42.168"/>
		</g>
		<g>
			<path fill="#FFA939" d="M71.971,46.023c0,0.709-0.574,1.275-1.283,1.275c-0.713,0-1.283-0.566-1.283-1.275
				c0-0.715,0.57-1.284,1.283-1.284C71.396,44.739,71.971,45.309,71.971,46.023L71.971,46.023z M71.971,46.023"/>
		</g>
		<g>
			<path fill="#FFA939" d="M71.971,53.723c0,0.717-0.574,1.286-1.283,1.286c-0.713,0-1.283-0.569-1.283-1.286
				c0-0.707,0.57-1.276,1.283-1.276C71.396,52.446,71.971,53.016,71.971,53.723L71.971,53.723z M71.971,53.723"/>
		</g>
		<g>
			<path fill="#FFA939" d="M75.824,49.873c0,0.709-0.576,1.287-1.285,1.287c-0.707,0-1.287-0.578-1.287-1.287
				s0.58-1.285,1.287-1.285C75.248,48.588,75.824,49.164,75.824,49.873L75.824,49.873z M75.824,49.873"/>
		</g>
		<g>
			<path fill="#FFA939" d="M75.824,57.578c0,0.709-0.576,1.285-1.285,1.285c-0.707,0-1.287-0.576-1.287-1.285
				s0.58-1.283,1.287-1.283C75.248,56.295,75.824,56.869,75.824,57.578L75.824,57.578z M75.824,57.578"/>
		</g>
		<g>
			<path fill="#FFA939" d="M68.119,49.873c0,0.709-0.578,1.287-1.285,1.287c-0.709,0-1.285-0.578-1.285-1.287
				s0.576-1.285,1.285-1.285C67.541,48.588,68.119,49.164,68.119,49.873L68.119,49.873z M68.119,49.873"/>
		</g>
		<g>
			<path fill="#FFA939" d="M68.119,57.578c0,0.709-0.578,1.285-1.285,1.285c-0.709,0-1.285-0.576-1.285-1.285
				s0.576-1.283,1.285-1.283C67.541,56.295,68.119,56.869,68.119,57.578L68.119,57.578z M68.119,57.578"/>
		</g>
		<g>
			<path fill="#FFA939" d="M71.971,61.428c0,0.709-0.574,1.287-1.283,1.287c-0.713,0-1.283-0.578-1.283-1.287
				c0-0.708,0.57-1.285,1.283-1.285C71.396,60.143,71.971,60.72,71.971,61.428L71.971,61.428z M71.971,61.428"/>
		</g>
		<g>
			<path fill="#FFA939" d="M75.824,65.284c0,0.708-0.576,1.278-1.285,1.278c-0.707,0-1.287-0.57-1.287-1.278
				c0-0.715,0.58-1.284,1.287-1.284C75.248,64,75.824,64.569,75.824,65.284L75.824,65.284z M75.824,65.284"/>
		</g>
		<g>
			<path fill="#FFA939" d="M68.119,65.284c0,0.708-0.578,1.278-1.285,1.278c-0.709,0-1.285-0.57-1.285-1.278
				c0-0.715,0.576-1.284,1.285-1.284C67.541,64,68.119,64.569,68.119,65.284L68.119,65.284z M68.119,65.284"/>
		</g>
		<g>
			<path fill="#FFA939" d="M98.936,69.133H97.65V21.621H82.244v47.512h-3.854V11.354H62.984v57.779h-3.854V51.16H43.723v17.973
				h-3.854V39.605H24.463v29.527c-0.707,0-1.283,0.577-1.283,1.284c0,0.71,0.576,1.289,1.283,1.289h74.473
				c0.709,0,1.283-0.579,1.283-1.289C100.219,69.71,99.645,69.133,98.936,69.133L98.936,69.133z M27.027,69.133V42.168h10.277
				v26.965H27.027z M46.289,69.133v-15.41h10.275v15.41H46.289z M71.971,69.133c0-0.709-0.574-1.284-1.283-1.284
				c-0.707,0-1.283,0.575-1.283,1.284h-3.855V13.926h10.275v55.207H71.971z M84.809,69.133V24.193h10.275v44.939H84.809z
				 M84.809,69.133"/>
		</g>
	</g>
	<g>
		<rect x="42.998" y="82.15" fill="#FFA939" width="3.273" height="10.965"/>
	</g>
	<g>
		<rect x="78.494" y="80.996" fill="#FFA939" width="3.273" height="12.119"/>
	</g>
	<g>
		<path fill="#FFA939" d="M90.904,93.07c0,0.849-0.244,1.539-1.732,1.539H35.305c-1.486,0-1.875-0.69-1.875-1.539l0,0
			c0-0.85,0.389-1.537,1.875-1.537h53.867C90.66,91.533,90.904,92.221,90.904,93.07L90.904,93.07z"/>
	</g>
</g>
</svg>
