<?xml version="1.0" encoding="utf-8"?>
<!-- Generator: Adobe Illustrator 16.0.0, SVG Export Plug-In . SVG Version: 6.00 Build 0)  -->
<!DOCTYPE svg PUBLIC "-//W3C//DTD SVG 1.1//EN" "http://www.w3.org/Graphics/SVG/1.1/DTD/svg11.dtd">
<svg version="1.1" id="Layer_1" xmlns="http://www.w3.org/2000/svg" xmlns:xlink="http://www.w3.org/1999/xlink" x="0px" y="0px"
	 width="94px" height="113px" viewBox="0 0 94 113" enable-background="new 0 0 94 113" xml:space="preserve">
<g>
	<g>
		<path fill="#FFA939" d="M82.414,112.736H12.01c-6.316,0-11.453-5.138-11.453-11.453v-77.33c0-6.314,5.137-11.452,11.453-11.452
			h70.404c6.316,0,11.451,5.138,11.451,11.452v77.33C93.865,107.599,88.73,112.736,82.414,112.736z M12.01,15.773
			c-4.51,0-8.18,3.67-8.18,8.18v77.33c0,4.51,3.67,8.182,8.18,8.182h70.404c4.51,0,8.18-3.672,8.18-8.182v-77.33
			c0-4.51-3.67-8.18-8.18-8.18H12.01z"/>
	</g>
	<g>
		<rect x="20.518" y="0.719" fill="#FFA939" width="4.76" height="6.83"/>
	</g>
	<g>
		<rect x="70.059" y="0.719" fill="#FFA939" width="4.76" height="6.458"/>
	</g>
	<g>
		<path fill="#FFA939" d="M79.195,85.033c0,0.875-1.205,1.586-2.693,1.586h-57.33c-1.488,0-2.695-0.711-2.695-1.586l0,0
			c0-0.876,1.207-1.588,2.695-1.588h57.33C77.99,83.445,79.195,84.157,79.195,85.033L79.195,85.033z"/>
	</g>
	<g>
		<path fill="#FFA939" d="M61.879,97.057c0,0.928-1.205,1.684-2.689,1.684H33.021c-1.484,0-2.691-0.756-2.691-1.684l0,0
			c0-0.928,1.207-1.682,2.691-1.682h26.168C60.674,95.375,61.879,96.129,61.879,97.057L61.879,97.057z"/>
	</g>
	<g>
		<path fill="#FFA939" d="M73.373,70.107H36.379v-3.271h36.994c0.168,0,0.291-0.021,0.369-0.041c-0.021-0.08-0.066-0.192-0.148-0.34
			L56.73,37.252c-0.084-0.146-0.162-0.242-0.217-0.298c-0.059,0.056-0.135,0.151-0.221,0.297L42.941,60.378l-2.836-1.634
			l13.355-23.129c0.729-1.262,1.84-1.986,3.053-1.986c1.209,0,2.322,0.725,3.051,1.986L76.426,64.82
			c0.73,1.262,0.799,2.588,0.195,3.637C76.016,69.507,74.83,70.107,73.373,70.107z"/>
	</g>
	<g>
		<path fill="#FFA939" d="M44.459,70.107H20.785c-1.201,0-2.188-0.511-2.701-1.402c-0.514-0.891-0.465-1.998,0.135-3.041
			l11.838-20.502c0.602-1.042,1.539-1.641,2.566-1.641c1.029,0,1.963,0.599,2.566,1.641l11.836,20.502
			c0.602,1.043,0.652,2.15,0.139,3.041C46.648,69.597,45.662,70.107,44.459,70.107z M21.32,66.836h22.604L32.623,47.261
			L21.32,66.836z"/>
	</g>
	<g>
		<path fill="#FFA939" d="M68.938,65.203c0,0.707-0.576,1.286-1.283,1.286c-0.709,0-1.285-0.579-1.285-1.286
			c0-0.709,0.576-1.286,1.285-1.286C68.361,63.917,68.938,64.494,68.938,65.203L68.938,65.203z M69.914,65.273"/>
	</g>
	<g>
		<path fill="#FFA939" d="M62.035,44.232c0,0.706-0.574,1.285-1.285,1.285c-0.707,0-1.285-0.579-1.285-1.285
			c0-0.71,0.578-1.284,1.285-1.284C61.461,42.948,62.035,43.522,62.035,44.232L62.035,44.232z M62.035,44.232"/>
	</g>
	<g>
		<path fill="#FFA939" d="M57.551,41.371c0,0.706-0.578,1.287-1.285,1.287s-1.285-0.581-1.285-1.287c0-0.71,0.578-1.285,1.285-1.285
			S57.551,40.661,57.551,41.371L57.551,41.371z M57.551,41.371"/>
	</g>
	<g>
		<g>
			<g>
				<path fill="#FFA939" d="M55.301,45.924c0.191,0.689-0.215,1.387-0.896,1.576c-0.689,0.187-1.389-0.213-1.578-0.902
					c-0.186-0.683,0.215-1.383,0.904-1.57C54.412,44.84,55.117,45.242,55.301,45.924L55.301,45.924z M55.301,45.924"/>
			</g>
			<g>
				<path fill="#FFA939" d="M57.328,53.357c0.186,0.684-0.215,1.391-0.896,1.578c-0.689,0.186-1.391-0.219-1.578-0.904
					c-0.188-0.681,0.211-1.389,0.9-1.58C56.439,52.268,57.141,52.674,57.328,53.357L57.328,53.357z M57.328,53.357"/>
			</g>
			<g>
				<path fill="#FFA939" d="M60.033,48.63c0.188,0.683-0.215,1.393-0.9,1.577c-0.684,0.188-1.393-0.219-1.58-0.9
					c-0.186-0.686,0.221-1.393,0.904-1.579C59.139,47.543,59.852,47.945,60.033,48.63L60.033,48.63z M60.033,48.63"/>
			</g>
			<g>
				<path fill="#FFA939" d="M52.602,50.656c0.186,0.682-0.219,1.393-0.904,1.58c-0.68,0.186-1.389-0.221-1.576-0.905
					c-0.188-0.683,0.217-1.39,0.902-1.577C51.707,49.568,52.414,49.972,52.602,50.656L52.602,50.656z M52.602,50.656"/>
			</g>
		</g>
		<g>
			<path fill="#FFA939" d="M61.832,55.608c0.186,0.692-0.215,1.393-0.898,1.579c-0.689,0.188-1.389-0.214-1.58-0.902
				c-0.184-0.686,0.215-1.385,0.904-1.571C60.941,54.527,61.645,54.929,61.832,55.608L61.832,55.608z M61.832,55.608"/>
		</g>
		<g>
			<path fill="#FFA939" d="M69.164,53.612c0.186,0.688-0.215,1.39-0.896,1.575c-0.689,0.189-1.391-0.213-1.578-0.902
				c-0.186-0.683,0.215-1.381,0.9-1.57C68.275,52.528,68.977,52.93,69.164,53.612L69.164,53.612z M69.164,53.612"/>
		</g>
		<g>
			<path fill="#FFA939" d="M63.857,63.045c0.188,0.683-0.215,1.39-0.896,1.576c-0.689,0.189-1.393-0.221-1.58-0.902
				c-0.184-0.684,0.215-1.391,0.904-1.576C62.967,61.953,63.672,62.362,63.857,63.045L63.857,63.045z M63.857,63.045"/>
		</g>
		<g>
			<path fill="#FFA939" d="M71.133,60.693c0.184,0.684-0.215,1.391-0.898,1.576c-0.688,0.188-1.393-0.217-1.58-0.899
				c-0.182-0.683,0.217-1.392,0.904-1.58C70.24,59.604,70.945,60.012,71.133,60.693L71.133,60.693z M71.133,60.693"/>
		</g>
		<g>
			<path fill="#FFA939" d="M66.564,58.318c0.184,0.68-0.217,1.393-0.9,1.576c-0.686,0.188-1.395-0.217-1.58-0.9
				c-0.188-0.684,0.219-1.393,0.904-1.58C65.672,57.228,66.377,57.631,66.564,58.318L66.564,58.318z M66.564,58.318"/>
		</g>
		<g>
			<path fill="#FFA939" d="M59.131,60.344c0.188,0.681-0.221,1.394-0.904,1.577c-0.682,0.187-1.393-0.22-1.58-0.899
				c-0.182-0.686,0.223-1.393,0.904-1.58C58.234,59.254,58.943,59.658,59.131,60.344L59.131,60.344z M59.131,60.344"/>
		</g>
		<g>
			<g>
				<path fill="#FFA939" d="M50.182,55.121c0.188,0.69-0.215,1.391-0.896,1.578c-0.689,0.186-1.391-0.215-1.578-0.902
					c-0.186-0.685,0.213-1.386,0.902-1.572C49.293,54.037,49.994,54.438,50.182,55.121L50.182,55.121z M50.182,55.121"/>
			</g>
			<g>
				<path fill="#FFA939" d="M64.473,51.227c0.189,0.687-0.215,1.387-0.896,1.576C62.887,52.988,62.186,52.59,62,51.9
					c-0.188-0.684,0.213-1.383,0.902-1.57C63.584,50.142,64.285,50.543,64.473,51.227L64.473,51.227z M64.473,51.227"/>
			</g>
			<g>
				<path fill="#FFA939" d="M52.209,62.555c0.186,0.684-0.215,1.392-0.898,1.578c-0.688,0.189-1.389-0.219-1.576-0.904
					c-0.186-0.68,0.213-1.387,0.9-1.576C51.318,61.467,52.021,61.872,52.209,62.555L52.209,62.555z M52.209,62.555"/>
			</g>
			<g>
				<path fill="#FFA939" d="M54.916,57.828c0.186,0.683-0.219,1.393-0.902,1.579s-1.396-0.22-1.578-0.902
					c-0.188-0.683,0.217-1.392,0.902-1.579C54.02,56.741,54.729,57.145,54.916,57.828L54.916,57.828z M54.916,57.828"/>
			</g>
			<g>
				<path fill="#FFA939" d="M56.832,64.86c0.188,0.679-0.219,1.39-0.9,1.577c-0.686,0.186-1.396-0.221-1.58-0.903
					c-0.188-0.683,0.219-1.392,0.904-1.577C55.938,63.771,56.645,64.174,56.832,64.86L56.832,64.86z M56.832,64.86"/>
			</g>
			<g>
				<path fill="#FFA939" d="M49.383,66.889c0.186,0.682-0.219,1.393-0.9,1.578c-0.686,0.188-1.396-0.221-1.58-0.902
					c-0.186-0.686,0.217-1.391,0.904-1.577C48.488,65.801,49.199,66.203,49.383,66.889L49.383,66.889z M49.383,66.889"/>
			</g>
			<g>
				<path fill="#FFA939" d="M62.033,67.178c0.188,0.68-0.221,1.393-0.9,1.576c-0.686,0.188-1.396-0.22-1.58-0.899
					c-0.186-0.687,0.217-1.393,0.902-1.579C61.139,66.088,61.85,66.492,62.033,67.178L62.033,67.178z M62.033,67.178"/>
			</g>
			<g>
				<path fill="#FFA939" d="M47.482,59.855c0.186,0.682-0.223,1.393-0.904,1.577c-0.682,0.187-1.391-0.222-1.576-0.901
					c-0.188-0.686,0.217-1.393,0.9-1.58C46.586,58.765,47.295,59.172,47.482,59.855L47.482,59.855z M47.482,59.855"/>
			</g>
		</g>
	</g>
	<g>
		<path fill="#FFA939" d="M26.316,21.689h-7.143c-2.424,0-4.396-1.972-4.396-4.4v-6.977c0-2.427,1.973-4.4,4.396-4.4h7.143
			c2.426,0,4.4,1.974,4.4,4.4v6.977C30.717,19.718,28.742,21.689,26.316,21.689z M19.174,9.186c-0.621,0-1.127,0.505-1.127,1.127
			v6.977c0,0.622,0.506,1.127,1.127,1.127h7.143c0.621,0,1.127-0.505,1.127-1.127v-6.977c0-0.622-0.506-1.127-1.127-1.127H19.174z"
			/>
	</g>
	<g>
		<path fill="#FFA939" d="M75.951,21.689h-7.141c-2.424,0-4.398-1.972-4.398-4.4v-6.977c0-2.427,1.975-4.4,4.398-4.4h7.141
			c2.426,0,4.4,1.974,4.4,4.4v6.977C80.352,19.718,78.377,21.689,75.951,21.689z M68.811,9.186c-0.621,0-1.127,0.505-1.127,1.127
			v6.977c0,0.622,0.506,1.127,1.127,1.127h7.141c0.621,0,1.129-0.505,1.129-1.127v-6.977c0-0.622-0.508-1.127-1.129-1.127H68.811z"
			/>
	</g>
</g>
</svg>
