<?xml version="1.0" encoding="utf-8"?>
<!-- Generator: Adobe Illustrator 16.0.0, SVG Export Plug-In . SVG Version: 6.00 Build 0)  -->
<!DOCTYPE svg PUBLIC "-//W3C//DTD SVG 1.1//EN" "http://www.w3.org/Graphics/SVG/1.1/DTD/svg11.dtd">
<svg version="1.1" id="Layer_1" xmlns="http://www.w3.org/2000/svg" xmlns:xlink="http://www.w3.org/1999/xlink" x="0px" y="0px"
	 width="283.46px" height="283.46px" viewBox="0 0 283.46 283.46" enable-background="new 0 0 283.46 283.46" xml:space="preserve">
<g>
	<g>
		<path fill="#FFFFFF" d="M124.506,124.634v26.702h-2.752v-1.265c-1.908,1.092-3.793,1.637-5.652,1.637
			c-0.992,0-1.859-0.125-2.604-0.372c-0.743-0.247-1.438-0.693-2.082-1.339c-1.339-1.339-2.008-3.812-2.008-7.419
			s0.601-6.211,1.803-7.81c1.203-1.599,3.192-2.399,5.969-2.399c1.438,0,2.963,0.162,4.574,0.483v-8.219H124.506z M114.838,148.956
			c0.445,0.174,1.021,0.26,1.729,0.26s1.5-0.117,2.381-0.353c0.879-0.235,1.567-0.465,2.063-0.688l0.743-0.335v-12.606
			c-1.586-0.298-3.062-0.446-4.425-0.446c-1.885,0-3.198,0.602-3.942,1.804s-1.115,3.067-1.115,5.597
			c0,2.876,0.434,4.811,1.301,5.802C113.969,148.46,114.391,148.782,114.838,148.956z"/>
		<path fill="#FFFFFF" d="M143.025,138.357v9.52c0.074,0.918,0.794,1.464,2.158,1.637l-0.112,2.194
			c-1.959,0-3.435-0.496-4.425-1.487c-2.232,0.991-4.463,1.487-6.695,1.487c-1.71,0-3.012-0.483-3.904-1.45
			s-1.338-2.355-1.338-4.165s0.457-3.143,1.375-3.998c0.917-0.855,2.355-1.382,4.314-1.581l5.838-0.558v-1.599
			c0-1.265-0.272-2.17-0.818-2.715c-0.545-0.545-1.289-0.818-2.23-0.818c-1.984,0-4.041,0.124-6.174,0.372l-1.152,0.111l-0.111-2.12
			c2.727-0.545,5.144-0.818,7.252-0.818c2.106,0,3.638,0.483,4.592,1.45C142.549,134.787,143.025,136.3,143.025,138.357z
			 M131.572,145.943c0,2.281,0.941,3.422,2.826,3.422c1.686,0,3.347-0.285,4.982-0.855l0.855-0.298v-6.136l-5.504,0.521
			c-1.115,0.1-1.922,0.422-2.417,0.967C131.819,144.109,131.572,144.902,131.572,145.943z"/>
		<path fill="#FFFFFF" d="M158.162,135.159h-5.914v8.888c0,2.133,0.155,3.533,0.465,4.202c0.311,0.67,1.047,1.004,2.213,1.004
			l3.311-0.223l0.186,2.306c-1.661,0.272-2.926,0.409-3.793,0.409c-1.934,0-3.273-0.471-4.017-1.413s-1.116-2.739-1.116-5.393v-9.78
			h-2.641v-2.417h2.641v-5.69h2.752v5.69h5.914V135.159z"/>
		<path fill="#FFFFFF" d="M174.711,138.357v9.52c0.074,0.918,0.793,1.464,2.156,1.637l-0.111,2.194
			c-1.959,0-3.435-0.496-4.426-1.487c-2.231,0.991-4.463,1.487-6.693,1.487c-1.711,0-3.013-0.483-3.905-1.45
			s-1.339-2.355-1.339-4.165s0.459-3.143,1.377-3.998c0.916-0.855,2.354-1.382,4.313-1.581l5.839-0.558v-1.599
			c0-1.265-0.272-2.17-0.817-2.715c-0.546-0.545-1.29-0.818-2.231-0.818c-1.983,0-4.042,0.124-6.173,0.372l-1.153,0.111l-0.112-2.12
			c2.728-0.545,5.145-0.818,7.252-0.818s3.639,0.483,4.593,1.45C174.232,134.787,174.711,136.3,174.711,138.357z M163.256,145.943
			c0,2.281,0.942,3.422,2.826,3.422c1.687,0,3.348-0.285,4.984-0.855l0.854-0.298v-6.136l-5.503,0.521
			c-1.116,0.1-1.922,0.422-2.418,0.967C163.504,144.109,163.256,144.902,163.256,145.943z"/>
		<path fill="#FAAD30" d="M180.214,151.336v-26.33h4.054v26.33H180.214z"/>
		<path fill="#FAAD30" d="M203.159,138.469v8.479c0.024,0.546,0.168,0.948,0.428,1.209c0.261,0.261,0.663,0.428,1.209,0.502
			l-0.111,3.087c-2.133,0-3.781-0.459-4.946-1.376c-1.983,0.917-3.979,1.376-5.987,1.376c-3.694,0-5.541-1.971-5.541-5.913
			c0-1.884,0.502-3.248,1.506-4.091s2.548-1.351,4.63-1.524l4.798-0.409v-1.339c0-0.991-0.218-1.686-0.651-2.083
			c-0.434-0.396-1.072-0.595-1.915-0.595c-1.587,0-3.57,0.1-5.95,0.298l-1.19,0.074l-0.148-2.864
			c2.702-0.645,5.188-0.967,7.456-0.967s3.905,0.49,4.909,1.469C202.657,134.781,203.159,136.337,203.159,138.469z M194.829,143.08
			c-1.71,0.148-2.565,1.078-2.565,2.789s0.756,2.566,2.269,2.566c1.239,0,2.553-0.198,3.941-0.596l0.67-0.223v-4.946L194.829,143.08
			z"/>
		<path fill="#FAAD30" d="M216.919,132.333c2.554,0,4.395,0.713,5.522,2.138c1.128,1.426,1.692,3.948,1.692,7.568
			s-0.669,6.143-2.008,7.567c-1.339,1.426-3.694,2.139-7.066,2.139c-1.165,0-3.012-0.111-5.541-0.335l-1.265-0.111v-26.292h4.017
			v8.442C213.981,132.705,215.53,132.333,216.919,132.333z M215.06,148.138c1.983,0,3.304-0.465,3.961-1.395
			c0.656-0.93,0.985-2.511,0.985-4.741c0-2.231-0.279-3.8-0.837-4.705c-0.558-0.904-1.469-1.357-2.733-1.357
			c-1.189,0-2.38,0.187-3.57,0.559l-0.595,0.186v11.306C213.634,148.088,214.563,148.138,215.06,148.138z"/>
	</g>
	<path fill="#FAAD30" d="M83.335,148.419c0.27,8.158-3.104,11.752-8.061,11.824c-2.581,0.039-8.045-1.084-7.795-11.834
		c0.104-4.451,3.343,0.01,7.795,0.01S83.188,143.968,83.335,148.419z"/>
	<path fill="#FFFFFF" d="M75.274,129.166"/>
	<path fill="#FFFFFF" d="M74.437,107.312c0-2.29-1.864-4.153-4.155-4.153s-4.154,1.863-4.154,4.153c0,1.848,1.22,3.399,2.891,3.938
		v31.453h2.527V111.25C73.216,110.711,74.437,109.16,74.437,107.312z M70.281,109.293c-1.092,0-1.98-0.889-1.98-1.981
		c0-1.091,0.889-1.979,1.98-1.979c1.093,0,1.981,0.888,1.981,1.979C72.263,108.405,71.374,109.293,70.281,109.293z"/>
	<path fill="#FFFFFF" d="M84.387,120.508c0-2.29-1.864-4.153-4.155-4.153s-4.154,1.863-4.154,4.153c0,1.848,1.22,3.399,2.891,3.938
		v18.256h2.527v-18.256C83.166,123.908,84.387,122.356,84.387,120.508z M80.231,122.49c-1.092,0-1.98-0.889-1.98-1.981
		c0-1.091,0.889-1.979,1.98-1.979c1.093,0,1.981,0.888,1.981,1.979C82.213,121.601,81.324,122.49,80.231,122.49z"/>
	<path fill="#FFFFFF" d="M85.089,129.165v23.313c0,5.411-4.403,9.814-9.814,9.814s-9.814-4.403-9.814-9.814v-36.629
		c0-3.134-2.55-5.684-5.684-5.684v2.528c1.74,0,3.156,1.416,3.156,3.156v36.629c0,6.806,5.536,12.342,12.342,12.342
		s12.342-5.536,12.342-12.342v-23.312c0-1.74,1.416-3.156,3.156-3.156v-2.528C87.639,123.481,85.09,126.031,85.089,129.165z"/>
</g>
</svg>
